# xmcd
# Copyright (C) 1995-1998 Ti Kan
#
# Track frame offsets:
#       150
#       22632
#       60672
#
# Disc length: 1466 seconds
#
# Revision: 0
# Processed by: cddbd v1.5.2PL0 Copyright (c) Steve Scherf et al.
# Submitted via: CD-Transfer v1.0
#
DISCID=1605b803
DTITLE=Band Aid Ri Glas - 
DYEAR=08
DGENRE=
TTITLE0=Za Nas
TTITLE1=Za Nas-Underground
TTITLE2=
EXTD=
EXTT0=
EXTT1=
EXTT2=
PLAYORDER=
